<?xml version="1.0" standalone="no"?>
<!DOCTYPE svg PUBLIC "-//W3C//DTD SVG 20010904//EN"
 "http://www.w3.org/TR/2001/REC-SVG-20010904/DTD/svg10.dtd">
<svg version="1.0" xmlns="http://www.w3.org/2000/svg"
 width="851.000000pt" height="851.000000pt" viewBox="0 0 851.000000 851.000000"
 preserveAspectRatio="xMidYMid meet">
<metadata>
Created by potrace 1.11, written by Peter Selinger 2001-2013
</metadata>
<g transform="translate(0.000000,851.000000) scale(0.100000,-0.100000)"
fill="#000000" stroke="none">
<path d="M3989 8506 c-2 -2 -44 -6 -93 -10 -629 -45 -1341 -296 -1896 -670
-79 -53 -309 -225 -339 -254 -9 -9 -51 -46 -92 -82 -148 -130 -333 -326 -460
-486 -38 -49 -76 -96 -82 -104 -88 -108 -261 -388 -362 -585 -122 -240 -270
-629 -301 -794 -3 -14 -7 -28 -9 -32 -3 -4 -12 -40 -21 -80 -8 -41 -17 -83
-20 -94 -6 -27 -40 -225 -52 -305 -13 -83 -14 -1410 -1 -1500 17 -125 19 -135
26 -165 3 -16 7 -39 8 -50 2 -23 7 -51 37 -180 110 -484 317 -958 596 -1365
69 -100 169 -234 213 -285 15 -16 59 -68 100 -115 119 -138 321 -332 469 -450
24 -19 48 -40 54 -45 6 -6 52 -40 101 -75 50 -36 95 -68 100 -73 39 -30 217
-140 313 -193 136 -76 328 -170 447 -217 382 -152 682 -226 1135 -282 111 -13
554 -17 691 -6 590 50 1121 205 1614 473 442 241 802 531 1149 928 15 18 68
85 117 149 49 64 93 121 97 126 19 24 164 248 183 282 11 21 30 54 41 73 152
258 312 657 391 975 28 112 39 155 43 170 1 6 5 30 9 55 4 24 8 47 10 50 2 3
6 27 9 53 3 26 8 57 11 69 3 13 8 41 12 63 11 62 13 1462 3 1525 -5 30 -16 98
-25 150 -94 587 -328 1162 -669 1648 -167 240 -422 525 -626 702 -35 30 -68
60 -74 65 -42 40 -263 205 -372 277 -194 129 -482 284 -648 349 -28 11 -64 27
-81 34 -16 7 -57 23 -90 34 -33 12 -69 25 -80 30 -24 11 -157 51 -280 85 -196
54 -492 106 -710 125 -95 8 -588 14 -596 7z"/>
</g>
</svg>
